:FULLY-SPECIFIED
:FORCE-ALL-JOINTS-BE-3DOF
:DEGREES
97
root 9.32241 16.3212 -22.6629 4.08927 -3.21039 4.26892
lfemur -2.08725 1.86764 -29.0377
ltibia 16.1926 -0 0
lfoot -17.2873 6.0968 -0.0509094
ltoes -2.12652 0 0
rfemur -33.1895 4.31337 13.2113
rtibia 54.9808 -0 0
rfoot -20.7541 -14.319 -0.187262
rtoes -13.0917 0 0
lowerback -5.92747 -2.23115 -5.42868
upperback -1.4061 -2.68989 2.26252
thorax 2.22256 -1.38206 5.12661
lowerneck -21.6171 -4.29118 -12.0473
upperneck 20.7256 -4.88721 11.3561
head 10.8406 -1.83921 5.39315
lclavicle -2.82721e-14 -1.38978e-15 -1.12663e-30
lhumerus -25.3273 -17.9751 89.2941
lradius 31.927 -0 0
lwrist 4.9935 0 0
lhand -12.023 -24.0178 -0.0873073
lfingers 7.12502 -0 0
lthumb 14.0408 5.56926 -0.0550571
rclavicle -2.82721e-14 -1.38978e-15 -1.12663e-30
rhumerus -44.7317 11.0766 -86.8779
rradius 36.8342 -0 0
rwrist -20.2449 0 0
rhand -30.4354 -22.257 -0.000749106
rfingers 7.12502 -0 0
rthumb -3.7379 -52.2039 -0.000734233
98
root 9.31407 16.3098 -22.4443 4.11683 -2.823 4.37258
lfemur -1.03672 1.80918 -29.0958
ltibia 15.176 -0 0
lfoot -17.3492 5.77413 -0.0605775
ltoes -2.25723 0 0
rfemur -33.7599 4.65627 12.7634
rtibia 53.9158 -0 0
rfoot -20.9983 -14.3874 -0.193064
rtoes -13.4386 0 0
lowerback -6.04172 -2.313 -5.52493
upperback -1.3947 -2.78656 2.24433
thorax 2.31446 -1.4337 5.14753
lowerneck -21.5387 -4.32471 -12.0882
upperneck 20.7922 -4.92541 11.319
head 10.8551 -1.86702 5.38172
lclavicle -2.91432e-14 -2.22912e-15 -1.20399e-30
lhumerus -25.3256 -18.4101 89.5424
lradius 32.3825 -0 0
lwrist 5.2688 0 0
lhand -12.0861 -24.0768 -0.0895487
lfingers 7.12502 -0 0
lthumb 13.98 5.51562 -0.0568714
rclavicle -2.91432e-14 -2.22912e-15 -1.20399e-30
rhumerus -44.831 10.8686 -86.711
rradius 36.6528 -0 0
rwrist -20.1422 0 0
rhand -30.4131 -22.251 -0.000672751
rfingers 7.12502 -0 0
rthumb -3.71637 -52.1983 -0.000660474
99
root 9.3052 16.2978 -22.227 4.14753 -2.42984 4.47265
lfemur 0.0124899 1.7516 -29.1457
ltibia 14.1541 -0 0
lfoot -17.4014 5.44661 -0.0704879
ltoes -2.39252 0 0
rfemur -34.3161 5.005 12.3107
rtibia 52.8012 -0 0
rfoot -21.2375 -14.4481 -0.197829
rtoes -13.7998 0 0
lowerback -6.15931 -2.39493 -5.61835
upperback -1.38302 -2.8831 2.22677
thorax 2.40863 -1.48536 5.16749
lowerneck -21.4583 -4.35935 -12.1304
upperneck 20.8571 -4.96522 11.283
head 10.8689 -1.89559 5.37065
lclavicle -3.00321e-14 -3.10463e-15 -1.26939e-30
lhumerus -25.3379 -18.8477 89.7993
lradius 32.8418 -0 0
lwrist 5.54673 0 0
lhand -12.1402 -24.1331 -0.0912527
lfingers 7.12502 -0 0
lthumb 13.9279 5.46346 -0.0583702
rclavicle -3.00321e-14 -3.10463e-15 -1.26939e-30
rhumerus -44.933 10.6611 -86.5434
rradius 36.477 -0 0
rwrist -20.0406 0 0
rhand -30.3904 -22.2513 -0.000582027
rfingers 7.12502 -0 0
rthumb -3.6944 -52.199 -0.000572744
100
root 9.29591 16.2854 -22.012 4.18121 -2.03192 4.569
lfemur 1.05761 1.69504 -29.1874
ltibia 13.1314 -0 0
lfoot -17.4437 5.1157 -0.0804966
ltoes -2.53207 0 0
rfemur -34.8579 5.35793 11.855
rtibia 51.6429 -0 0
rfoot -21.4713 -14.5009 -0.20155
rtoes -14.1732 0 0
lowerback -6.27962 -2.47672 -5.70872
upperback -1.37112 -2.97927 2.20988
thorax 2.5046 -1.53689 5.18647
lowerneck -21.3761 -4.39502 -12.1739
upperneck 20.92 -5.00655 11.2483
head 10.8821 -1.92483 5.35998
lclavicle -3.09349e-14 -4.01028e-15 -1.32144e-30
lhumerus -25.364 -19.2865 90.064
lradius 33.3032 -0 0
lwrist 5.82635 0 0
lhand -12.1854 -24.1866 -0.0924237
lfingers 7.12502 -0 0
lthumb 13.8844 5.41293 -0.0595491
rclavicle -3.09349e-14 -4.01028e-15 -1.32144e-30
rhumerus -45.0374 10.4546 -86.3753
rradius 36.3068 -0 0
rwrist -19.9402 0 0
rhand -30.3672 -22.2576 -0.000477729
rfingers 7.12502 -0 0
rthumb -3.672 -52.2056 -0.000471816
101
root 9.28629 16.2725 -21.8001 4.21772 -1.63025 4.66151
lfemur 2.09588 1.63961 -29.2211
ltibia 12.1124 -0 0
lfoot -17.4761 4.78287 -0.0904552
ltoes -2.67562 0 0
rfemur -35.3851 5.71344 11.398
rtibia 50.4467 -0 0
rfoot -21.6991 -14.5459 -0.204219
rtoes -14.557 0 0
lowerback -6.40204 -2.55815 -5.79583
upperback -1.35906 -3.07482 2.19368
thorax 2.60191 -1.58817 5.20442
lowerneck -21.2924 -4.43164 -12.2184
upperneck 20.9806 -5.04933 11.215
head 10.8944 -1.95469 5.34973
lclavicle -3.18479e-14 -4.94003e-15 -1.35904e-30
lhumerus -25.4038 -19.7249 90.3358
lradius 33.7652 -0 0
lwrist 6.10674 0 0
lhand -12.2218 -24.2373 -0.0930676
lfingers 7.12502 -0 0
lthumb 13.8492 5.36421 -0.0604044
rclavicle -3.18479e-14 -4.94003e-15 -1.35904e-30
rhumerus -45.1436 10.2493 -86.207
rradius 36.1421 -0 0
rwrist -19.8412 0 0
rhand -30.3436 -22.2694 -0.000360796
rfingers 7.12502 -0 0
rthumb -3.64919 -52.2179 -0.000358602
102
root 9.27646 16.2593 -21.5925 4.2569 -1.22584 4.75006
lfemur 3.12452 1.58542 -29.2466
ltibia 11.1015 -0 0
lfoot -17.4986 4.44958 -0.100212
ltoes -2.82284 0 0
rfemur -35.8976 6.06994 10.9414
rtibia 49.2185 -0 0
rfoot -21.9205 -14.5829 -0.20583
rtoes -14.949 0 0
lowerback -6.52594 -2.63898 -5.87947
upperback -1.34689 -3.16948 2.17823
thorax 2.70009 -1.63904 5.2213
lowerneck -21.2074 -4.46914 -12.2639
upperneck 21.0389 -5.09347 11.1832
head 10.9059 -1.9851 5.33994
lclavicle -3.27673e-14 -5.88783e-15 -1.38138e-30
lhumerus -25.4573 -20.1613 90.614
lradius 34.226 -0 0
lwrist 6.38697 0 0
lhand -12.2497 -24.2849 -0.0931918
lfingers 7.12502 -0 0
lthumb 13.8222 5.31746 -0.0609332
rclavicle -3.27673e-14 -5.88783e-15 -1.38138e-30
rhumerus -45.2513 10.0459 -86.0387
rradius 35.9828 -0 0
rwrist -19.7436 0 0
rhand -30.3195 -22.2866 -0.000232341
rfingers 7.12502 -0 0
rthumb -3.62598 -52.2354 -0.000234179
103
root 9.26653 16.2458 -21.39 4.29857 -0.819686 4.83454
lfemur 4.14077 1.53261 -29.264
ltibia 10.1033 -0 0
lfoot -17.5111 4.11731 -0.109613
ltoes -2.97347 0 0
rfemur -36.3951 6.4259 10.4869
rtibia 47.9644 -0 0
rfoot -22.1351 -14.612 -0.20638
rtoes -15.3473 0 0
lowerback -6.65072 -2.71899 -5.95944
upperback -1.3347 -3.26302 2.16355
thorax 2.79868 -1.68936 5.2371
lowerneck -21.1214 -4.50745 -12.3103
upperneck 21.0944 -5.13891 11.1531
head 10.9166 -2.01598 5.33063
lclavicle -3.36894e-14 -6.84765e-15 -1.38798e-30
lhumerus -25.5243 -20.5943 90.8977
lradius 34.684 -0 0
lwrist 6.66608 0 0
lhand -12.2693 -24.3294 -0.092805
lfingers 7.12502 -0 0
lthumb 13.8032 5.27284 -0.0611337
rclavicle -3.36894e-14 -6.84765e-15 -1.38798e-30
rhumerus -45.36 9.8448 -85.8708
rradius 35.8287 -0 0
rwrist -19.6475 0 0
rhand -30.2951 -22.3086 -9.36605e-05
rfingers 7.12502 -0 0
rthumb -3.60239 -52.2579 -9.98073e-05
